<svg xmlns="http://www.w3.org/2000/svg" viewBox="0 0 708.7 708.7"><style>.st0{fill:#fff}.st1{fill:#164194}.st2{fill:#e62336}</style><path class="st0" d="M0 708.7h708.7V0H0v708.7z"/><path class="st1" d="M671.4 332V37.3H37.3v314.3l438.9-201.9c-39.5 102 33.9 236 195.2 182.3z"/><path class="st2" d="M57.9 671.9h46.3V533h20.4v-46.3H37.5V533h20.4v138.9zM134.7 671.9H181V486.7h-46.3v185.2zM407 575.6l-46.3-88.9h-46.3v185.2h46.3V583l46.3 88.9h46.3V486.7H407v88.9zM463.8 486.7v185.2h92.6v-46.3h-46.3v-22.2h46.3v-46.3h-46.3V533h46.3v-46.3h-92.6zM192.5 533v92.6c0 46.3 46.3 46.3 46.3 46.3h64.8v-92.6h-46.3v46.3H248s-9.3 0-9.3-9.3v-74.1c0-9.3 9.3-9.3 9.3-9.3h40.8s14.8 0 14.8-14.8 0-31.5 0-31.5h-64.8c0 .1-46.3.1-46.3 46.4zM643.6 568.2s-18.5-13-24.1-16.7c-5.6-3.7-5.6-9.3-5.6-9.3 0 1.4-1.8-9.3 11.1-9.3h24.1c14.8 0 14.8-14.8 14.8-14.8v-31.5h-40.8c-37 0-55.6 24.1-55.6 53.7 0 20.4 11.8 36 19.4 42.1 11.5 9.1 32.5 24.6 32.5 24.6 3.4 2.8 5.6 3.4 5.6 9.3 0 5.6-3.7 9.3-9.3 9.3h-48.2v46.3h53.7c48.2 0 50-51.9 50-55.6.2-14.8.2-29.6-27.6-48.1z"/></svg>